<?xml version="1.0" encoding="utf-8"?>
<!-- Generator: Adobe Illustrator 19.1.0, SVG Export Plug-In . SVG Version: 6.00 Build 0)  -->
<svg version="1.1" xmlns="http://www.w3.org/2000/svg" xmlns:xlink="http://www.w3.org/1999/xlink" x="0px" y="0px" width="188px"
	 height="59.3px" viewBox="0 0 188 59.3" style="enable-background:new 0 0 188 59.3;" xml:space="preserve">
<style type="text/css">
	.st0{fill:#5F6062;}
	.st1{fill:#FAA634;}
	.st2{fill:#FFFFFF;}
	.st3{display:none;}
	.st4{display:inline;fill:#EE2C80;}
	.st5{display:inline;}
	.st6{fill:#231F20;}
	.st7{fill:#808285;}
</style>
<g id="full_color">
	<g>
		<path class="st0" d="M69.6,12.6c0-0.2,0.2-0.5,0.5-0.5h2.2c0.3,0,0.5,0.2,0.5,0.5V19h7.8v-6.4c0-0.2,0.2-0.5,0.5-0.5h2.2
			c0.2,0,0.5,0.2,0.5,0.5v15.9c0,0.2-0.2,0.5-0.5,0.5H81c-0.3,0-0.5-0.2-0.5-0.5v-6.6h-7.8v6.6c0,0.2-0.2,0.5-0.5,0.5H70
			c-0.2,0-0.5-0.2-0.5-0.5V12.6z"/>
		<path class="st0" d="M90.2,12.6c0-0.2,0.2-0.5,0.5-0.5h2.2c0.2,0,0.5,0.2,0.5,0.5v15.9c0,0.2-0.2,0.5-0.5,0.5h-2.2
			c-0.2,0-0.5-0.2-0.5-0.5V12.6z"/>
		<path class="st0" d="M99.8,12.6c0-0.2,0.2-0.5,0.5-0.5h2.2c0.2,0,0.5,0.2,0.5,0.5v13.5h6.1c0.3,0,0.5,0.2,0.5,0.5v2
			c0,0.2-0.2,0.5-0.5,0.5h-8.8c-0.3,0-0.5-0.2-0.5-0.5V12.6z"/>
		<path class="st0" d="M114.9,12.6c0-0.2,0.2-0.5,0.5-0.5h9.8c0.3,0,0.5,0.2,0.5,0.5v2c0,0.2-0.2,0.5-0.5,0.5h-7.1V19h5.9
			c0.2,0,0.5,0.2,0.5,0.5v2c0,0.3-0.2,0.5-0.5,0.5h-5.9v4.2h7.1c0.3,0,0.5,0.2,0.5,0.5v2c0,0.2-0.2,0.5-0.5,0.5h-9.8
			c-0.3,0-0.5-0.2-0.5-0.5V12.6z"/>
		<path class="st0" d="M133.8,12.3c0-0.2,0.2-0.4,0.4-0.4h0.4c0.2,0,0.3,0.1,0.4,0.2l5.3,11.3h0.1l5.3-11.3c0.1-0.1,0.2-0.2,0.4-0.2
			h0.4c0.3,0,0.4,0.2,0.4,0.4l2.8,16.2c0.1,0.3-0.1,0.6-0.4,0.6h-2.2c-0.2,0-0.4-0.2-0.5-0.4l-1.4-9.1h-0.1l-4.2,9.4
			c0,0.1-0.2,0.3-0.4,0.3h-0.4c-0.2,0-0.3-0.1-0.4-0.3l-4.3-9.4h-0.1l-1.4,9.1c0,0.2-0.2,0.4-0.4,0.4h-2.2c-0.3,0-0.5-0.2-0.5-0.6
			L133.8,12.3z"/>
		<path class="st0" d="M164.2,23.2l-2.4-5.3h-0.1l-2.4,5.3H164.2z M153.8,28.3l7.5-16.2c0.1-0.1,0.2-0.3,0.4-0.3h0.2
			c0.2,0,0.3,0.1,0.4,0.3l7.4,16.2c0.1,0.3,0,0.6-0.4,0.6h-2.1c-0.4,0-0.5-0.1-0.7-0.5l-1.2-2.6h-7.2l-1.2,2.6
			c-0.1,0.2-0.3,0.5-0.7,0.5h-2.1C153.9,29,153.7,28.6,153.8,28.3"/>
		<path class="st0" d="M173.8,12.3c0-0.2,0.2-0.4,0.5-0.4h0.6l10,10.6h0v-9.9c0-0.2,0.2-0.5,0.5-0.5h2.2c0.2,0,0.5,0.2,0.5,0.5v16.2
			c0,0.2-0.2,0.4-0.5,0.4H187l-10-11h0v10.3c0,0.2-0.2,0.5-0.5,0.5h-2.2c-0.2,0-0.5-0.2-0.5-0.5V12.3z"/>
		<path class="st0" d="M73.3,37c1.3,0,2.4,0.5,3.4,1.3c0.1,0.1,0.1,0.3,0,0.4c-0.2,0.2-0.4,0.4-0.6,0.7c-0.1,0.1-0.2,0.1-0.4,0
			c-0.7-0.6-1.5-1-2.4-1c-2,0-3.5,1.7-3.5,3.6c0,1.9,1.5,3.6,3.5,3.6c1.2,0,2-0.4,2.1-0.5v-1.6h-1.4c-0.2,0-0.3-0.1-0.3-0.3v-0.8
			c0-0.2,0.1-0.3,0.3-0.3h2.5c0.1,0,0.3,0.1,0.3,0.3c0,1.1,0,2.3,0,3.4c0,0.1-0.1,0.2-0.1,0.2c0,0-1.4,0.9-3.5,0.9c-2.8,0-5-2.2-5-5
			C68.3,39.3,70.6,37,73.3,37"/>
		<path class="st0" d="M85.1,41.9c0.9,0,1.7-0.8,1.7-1.7c0-0.9-0.8-1.7-1.7-1.7h-2.5v3.4H85.1z M81.1,37.4c0-0.1,0.1-0.3,0.3-0.3
			h3.8c1.7,0,3,1.3,3,3c0,1.3-0.9,2.3-2.1,2.8l1.9,3.6c0.1,0.2,0,0.4-0.2,0.4h-1.1c-0.1,0-0.2-0.1-0.2-0.1l-1.9-3.7h-2.1v3.6
			c0,0.1-0.1,0.3-0.3,0.3h-0.9c-0.2,0-0.3-0.1-0.3-0.3V37.4z"/>
		<path class="st0" d="M96.1,45.7c2,0,3.6-1.6,3.6-3.6c0-2-1.6-3.7-3.6-3.7c-2,0-3.6,1.7-3.6,3.7C92.5,44.1,94.1,45.7,96.1,45.7
			 M96.1,37c2.8,0,5,2.3,5,5c0,2.8-2.2,5-5,5c-2.8,0-5-2.2-5-5C91.1,39.3,93.3,37,96.1,37"/>
		<path class="st0" d="M104.4,37.4c0-0.1,0.1-0.3,0.3-0.3h0.9c0.2,0,0.3,0.1,0.3,0.3v5.8c0,1.4,0.9,2.5,2.3,2.5
			c1.4,0,2.3-1.1,2.3-2.5v-5.8c0-0.1,0.1-0.3,0.3-0.3h0.9c0.1,0,0.3,0.1,0.3,0.3v5.9c0,2.1-1.6,3.8-3.8,3.8c-2.2,0-3.8-1.7-3.8-3.8
			V37.4z"/>
		<path class="st0" d="M119.4,42c1,0,1.8-0.8,1.8-1.8c0-1-0.8-1.7-1.8-1.7h-1.9V42H119.4z M116,37.4c0-0.1,0.1-0.3,0.3-0.3h3.2
			c1.7,0,3.1,1.4,3.1,3.1c0,1.7-1.4,3.1-3.1,3.1h-2v3.3c0,0.1-0.1,0.3-0.3,0.3h-0.9c-0.2,0-0.3-0.1-0.3-0.3V37.4z"/>
		<path class="st1" d="M48.8,10.8c-5.2-3-11.9-1.1-14.9,4.1c-0.5,0.9-0.9,1.8-1.1,2.8c-1.8-0.8-3.7-1.3-5.8-1.3
			c-2,0-3.9,0.5-5.5,1.3c-0.7-2.8-2.5-5.3-5.2-6.9c-5.2-3-11.9-1.1-14.9,4.1c-3,5.2-1.1,11.9,4.1,14.9c2.7,1.5,5.7,1.8,8.4,1
			c0.3,4.1,2.5,7.6,5.6,9.8c-0.7,0.7-1.4,1.5-1.9,2.5c-3,5.2-1.1,11.9,4.1,14.9c5.2,3,11.9,1.1,14.9-4.1c2.5-4.4,1.6-9.8-1.9-13.2
			c3.2-2.2,5.3-5.7,5.7-9.8c4.7,1.4,10-0.6,12.6-5.1C55.9,20.4,54.1,13.8,48.8,10.8z"/>
		<circle class="st0" cx="27.2" cy="10.9" r="10.9"/>
		<circle class="st0" cx="10.9" cy="39" r="10.9"/>
		<circle class="st0" cx="43.4" cy="39" r="10.9"/>
		<circle class="st2" cx="27.2" cy="10.9" r="5.5"/>
		<circle class="st2" cx="27.2" cy="29.7" r="4.7"/>
		<circle class="st2" cx="43.4" cy="39" r="5.4"/>
		<circle class="st2" cx="27.2" cy="48.4" r="3.8"/>
		<circle class="st2" cx="43.4" cy="20.3" r="3.8"/>
		<circle class="st2" cx="11" cy="20.2" r="3.8"/>
		<circle class="st2" cx="10.9" cy="39" r="5.5"/>
	</g>
</g>
<g id="spacers" class="st3">
	<circle class="st4" cx="68.1" cy="162.4" r="13.6"/>
	<circle class="st4" cx="68.1" cy="-14" r="13.6"/>
	<circle class="st4" cx="-13.6" cy="74.8" r="13.6"/>
	<circle class="st4" cx="484.4" cy="51.4" r="13.6"/>
</g>
<g id="greyscale" class="st3">
	<g class="st5">
		<path class="st6" d="M173.9,31.9c0-0.6,0.5-1.1,1.1-1.1h5.6c0.7,0,1.1,0.5,1.1,1.1v15.9h19.6V31.9c0-0.6,0.5-1.1,1.1-1.1h5.5
			c0.6,0,1.1,0.5,1.1,1.1v39.7c0,0.6-0.5,1.1-1.1,1.1h-5.5c-0.7,0-1.1-0.5-1.1-1.1V55.1h-19.6v16.6c0,0.6-0.5,1.1-1.1,1.1H175
			c-0.6,0-1.1-0.5-1.1-1.1V31.9z"/>
		<path class="st6" d="M225.2,31.9c0-0.6,0.5-1.1,1.1-1.1h5.6c0.6,0,1.1,0.5,1.1,1.1v39.7c0,0.6-0.5,1.1-1.1,1.1h-5.6
			c-0.6,0-1.1-0.5-1.1-1.1V31.9z"/>
		<path class="st6" d="M249.3,31.9c0-0.6,0.5-1.1,1.1-1.1h5.5c0.6,0,1.1,0.5,1.1,1.1v33.6h15.3c0.7,0,1.1,0.5,1.1,1.1v4.9
			c0,0.6-0.5,1.1-1.1,1.1h-22c-0.7,0-1.1-0.5-1.1-1.1V31.9z"/>
		<path class="st6" d="M287,31.9c0-0.6,0.5-1.1,1.1-1.1h24.4c0.7,0,1.1,0.5,1.1,1.1v4.9c0,0.6-0.5,1.1-1.1,1.1h-17.8v9.8h14.8
			c0.6,0,1.1,0.5,1.1,1.1v5c0,0.7-0.5,1.1-1.1,1.1h-14.8v10.5h17.8c0.7,0,1.1,0.5,1.1,1.1v4.9c0,0.6-0.5,1.1-1.1,1.1h-24.4
			c-0.7,0-1.1-0.5-1.1-1.1V31.9z"/>
		<path class="st6" d="M334.1,31.1c0.1-0.5,0.4-0.9,1.1-0.9h1c0.5,0,0.8,0.2,1,0.6l13.2,28.3h0.2l13.2-28.3c0.2-0.4,0.5-0.6,1-0.6h1
			c0.7,0,1,0.4,1.1,0.9l7.1,40.3c0.2,0.8-0.3,1.4-1.1,1.4h-5.5c-0.5,0-1-0.5-1.1-0.9l-3.5-22.7h-0.2L352,72.7
			c-0.1,0.4-0.5,0.7-1,0.7h-1.1c-0.5,0-0.8-0.3-1-0.7l-10.6-23.6h-0.2l-3.5,22.7c-0.1,0.4-0.5,0.9-1.1,0.9h-5.4
			c-0.8,0-1.3-0.5-1.1-1.4L334.1,31.1z"/>
		<path class="st6" d="M410,58.4l-6-13.2h-0.2l-5.9,13.2H410z M384.1,71.2l18.7-40.4c0.2-0.4,0.5-0.7,1-0.7h0.6c0.6,0,0.8,0.3,1,0.7
			l18.5,40.4c0.4,0.8-0.1,1.6-1,1.6h-5.2c-0.9,0-1.3-0.4-1.7-1.2l-2.9-6.5H395l-2.9,6.5c-0.2,0.6-0.8,1.2-1.7,1.2h-5.2
			C384.2,72.8,383.7,72,384.1,71.2"/>
		<path class="st6" d="M433.8,31.3c0-0.6,0.5-1.1,1.1-1.1h1.5l24.9,26.5h0.1V31.9c0-0.6,0.5-1.1,1.1-1.1h5.5c0.6,0,1.1,0.5,1.1,1.1
			v40.4c0,0.6-0.5,1.1-1.1,1.1h-1.4l-25.1-27.5h-0.1v25.8c0,0.6-0.5,1.1-1.1,1.1H435c-0.6,0-1.1-0.5-1.1-1.1V31.3z"/>
		<path class="st6" d="M183.3,92.9c3.3,0,6.1,1.2,8.5,3.2c0.3,0.3,0.3,0.7,0,1c-0.5,0.6-1,1.1-1.6,1.6c-0.3,0.3-0.6,0.3-0.9,0
			c-1.6-1.4-3.8-2.4-5.9-2.4c-5,0-8.8,4.2-8.8,9.1c0,4.8,3.8,9,8.8,9c2.9,0,4.9-1,5.2-1.2v-3.9h-3.4c-0.4,0-0.7-0.3-0.7-0.6v-2
			c0-0.4,0.3-0.7,0.7-0.7h6.4c0.3,0,0.6,0.3,0.6,0.7c0,2.8,0,5.7,0,8.4c0,0.2-0.1,0.5-0.3,0.6c0,0-3.6,2.3-8.7,2.3
			c-6.9,0-12.6-5.5-12.6-12.5C170.7,98.5,176.3,92.9,183.3,92.9"/>
		<path class="st6" d="M212.5,105.1c2.3,0,4.3-1.9,4.3-4.3c0-2.3-2-4.2-4.3-4.2h-6.2v8.5H212.5z M202.6,93.9c0-0.3,0.3-0.7,0.7-0.7
			h9.5c4.2,0,7.6,3.3,7.6,7.5c0,3.2-2.1,5.9-5.2,7.1l4.8,8.9c0.2,0.5,0,1-0.6,1h-2.7c-0.3,0-0.5-0.2-0.6-0.3l-4.6-9.2h-5.3v8.9
			c0,0.3-0.3,0.7-0.7,0.7h-2.3c-0.4,0-0.7-0.3-0.7-0.7V93.9z"/>
		<path class="st6" d="M240.1,114.5c5,0,9.1-4,9.1-9c0-5-4.1-9.1-9.1-9.1c-5,0-9,4.2-9,9.1C231,110.5,235.1,114.5,240.1,114.5
			 M240.1,92.9c7,0,12.6,5.6,12.6,12.6c0,7-5.6,12.5-12.6,12.5c-7,0-12.5-5.5-12.5-12.5C227.5,98.5,233.1,92.9,240.1,92.9"/>
		<path class="st6" d="M260.8,93.9c0-0.3,0.3-0.7,0.7-0.7h2.3c0.4,0,0.7,0.3,0.7,0.7v14.4c0,3.5,2.2,6.2,5.8,6.2
			c3.6,0,5.9-2.7,5.9-6.1V93.9c0-0.3,0.3-0.7,0.7-0.7h2.3c0.3,0,0.7,0.3,0.7,0.7v14.6c0,5.3-4,9.5-9.5,9.5c-5.5,0-9.5-4.2-9.5-9.5
			V93.9z"/>
		<path class="st6" d="M298.1,105.4c2.4,0,4.4-2,4.4-4.5c0-2.4-2-4.2-4.4-4.2h-4.8v8.7H298.1z M289.7,93.9c0-0.3,0.3-0.7,0.7-0.7h8
			c4.3,0,7.8,3.5,7.8,7.7c0,4.3-3.5,7.8-7.8,7.8h-5.1v8.2c0,0.3-0.3,0.7-0.7,0.7h-2.3c-0.4,0-0.7-0.3-0.7-0.7V93.9z"/>
		<path class="st7" d="M122.1,27.4C109,20,92.4,24.6,85,37.7c-1.3,2.2-2.1,4.5-2.7,6.9c-4.4-2.1-9.3-3.2-14.5-3.2
			c-4.9,0-9.6,1.2-13.8,3.1c-1.7-7-6.2-13.3-13-17.2C28,20,11.4,24.5,4,37.6c-7.4,13.1-2.8,29.7,10.2,37.1
			c6.6,3.8,14.1,4.4,20.9,2.5c0.8,10.1,6.2,19,14.1,24.5c-1.9,1.8-3.5,3.8-4.8,6.2c-7.4,13.1-2.8,29.7,10.2,37.1
			c13.1,7.4,29.7,2.8,37.1-10.2c6.3-11,3.9-24.6-4.8-33c7.9-5.5,13.3-14.3,14.1-24.5c11.8,3.5,25-1.5,31.3-12.7
			C139.7,51.4,135.1,34.9,122.1,27.4z"/>
		<circle class="st6" cx="68.2" cy="27.7" r="27.2"/>
		<circle class="st6" cx="27.5" cy="97.8" r="27.2"/>
		<path class="st6" d="M122,74.3c-13.1-7.4-29.7-2.8-37.1,10.2c-7.4,13.1-2.8,29.7,10.2,37.1c13.1,7.4,29.7,2.8,37.1-10.2
			C139.7,98.3,135.1,81.7,122,74.3z"/>
		<path class="st2" d="M74.9,15.9c-6.5-3.7-14.8-1.4-18.6,5.1c-3.7,6.5-1.4,14.8,5.1,18.6C68,43.3,76.3,41,80,34.4
			C83.8,27.9,81.5,19.6,74.9,15.9z"/>
		<circle class="st2" cx="68.2" cy="74.5" r="11.7"/>
		<path class="st2" d="M115.3,86.1c-6.5-3.7-14.8-1.4-18.5,5.1c-3.7,6.5-1.4,14.8,5.1,18.5c6.5,3.7,14.8,1.4,18.5-5.1
			C124.1,98.1,121.8,89.8,115.3,86.1z"/>
		<circle class="st2" cx="68" cy="121.2" r="9.5"/>
		<path class="st2" d="M113.3,42.8c-4.6-2.6-10.4-1-13,3.6c-2.6,4.6-1,10.4,3.6,13c4.6,2.6,10.4,1,13-3.6
			C119.5,51.2,117.9,45.4,113.3,42.8z"/>
		<path class="st2" d="M32.3,42.7c-4.6-2.6-10.4-1-13,3.6c-2.6,4.6-1,10.4,3.6,13c4.6,2.6,10.4,1,13-3.6
			C38.5,51.1,36.9,45.3,32.3,42.7z"/>
		<circle class="st2" cx="27.5" cy="97.8" r="13.6"/>
	</g>
</g>
</svg>
